<svg width="71" height="71" viewBox="0 0 71 71" fill="none" xmlns="http://www.w3.org/2000/svg">
<rect x="0.25" y="0.25" width="70.5" height="70.5" rx="9.75" stroke="#5956E8" stroke-width="0.5"/>
<path d="M49.3751 45.1816V35.0683C49.792 34.8364 50.1495 34.5109 50.4193 34.1174C50.6891 33.7239 50.8639 33.2731 50.9299 32.8006C50.996 32.3281 50.9515 31.8467 50.7999 31.3943C50.6484 30.9419 50.3939 30.5309 50.0565 30.1935C49.7192 29.8561 49.3081 29.6017 48.8557 29.4501C48.4033 29.2985 47.9219 29.254 47.4494 29.3201C46.9769 29.3862 46.5262 29.561 46.1327 29.8308C45.7392 30.1006 45.4137 30.458 45.1817 30.875H40.1251V25.8183C40.542 25.5864 40.8995 25.2609 41.1693 24.8674C41.4391 24.4739 41.6139 24.0231 41.6799 23.5506C41.746 23.0781 41.7015 22.5967 41.5499 22.1443C41.3984 21.6919 41.1439 21.2809 40.8065 20.9435C40.4692 20.6061 40.0581 20.3517 39.6057 20.2001C39.1533 20.0485 38.6719 20.004 38.1994 20.0701C37.7269 20.1362 37.2762 20.311 36.8827 20.5808C36.4892 20.8506 36.1637 21.208 35.9317 21.625H25.8184C25.5865 21.208 25.261 20.8506 24.8675 20.5808C24.474 20.311 24.0233 20.1362 23.5507 20.0701C23.0782 20.004 22.5968 20.0485 22.1444 20.2001C21.692 20.3517 21.281 20.6061 20.9436 20.9435C20.6062 21.2809 20.3518 21.6919 20.2002 22.1443C20.0487 22.5967 20.0042 23.0781 20.0702 23.5506C20.1363 24.0231 20.3111 24.4739 20.5809 24.8674C20.8507 25.2609 21.2081 25.5864 21.6251 25.8183V35.9316C21.2081 36.1635 20.8507 36.4891 20.5809 36.8825C20.3111 37.276 20.1363 37.7268 20.0702 38.1993C20.0042 38.6718 20.0487 39.1532 20.2002 39.6056C20.3518 40.058 20.6062 40.469 20.9436 40.8064C21.281 41.1438 21.692 41.3983 22.1444 41.5498C22.5968 41.7014 23.0782 41.7459 23.5507 41.6798C24.0233 41.6138 24.474 41.4389 24.8675 41.1691C25.261 40.8993 25.5865 40.5419 25.8184 40.125H30.8751V45.1816C30.4581 45.4135 30.1007 45.7391 29.8309 46.1325C29.5611 46.526 29.3863 46.9768 29.3202 47.4493C29.2542 47.9218 29.2987 48.4032 29.4502 48.8556C29.6018 49.308 29.8562 49.719 30.1936 50.0564C30.531 50.3938 30.942 50.6483 31.3944 50.7998C31.8468 50.9514 32.3282 50.9959 32.8007 50.9298C33.2733 50.8638 33.724 50.6889 34.1175 50.4191C34.511 50.1493 34.8365 49.7919 35.0684 49.375H45.1817C45.4137 49.7919 45.7392 50.1493 46.1327 50.4191C46.5262 50.6889 46.9769 50.8638 47.4494 50.9298C47.9219 50.9959 48.4033 50.9514 48.8557 50.7998C49.3081 50.6483 49.7192 50.3938 50.0565 50.0564C50.3939 49.719 50.6484 49.308 50.7999 48.8556C50.9515 48.4032 50.996 47.9218 50.9299 47.4493C50.8639 46.9768 50.6891 46.526 50.4193 46.1325C50.1495 45.7391 49.792 45.4135 49.3751 45.1816ZM29.3334 32.4166C29.3367 32.9547 29.4807 33.4826 29.7511 33.9478C30.0216 34.4129 30.4091 34.7993 30.8751 35.0683V37.0416H25.8184C25.5557 36.578 25.172 36.1944 24.7084 35.9316V25.8183C25.172 25.5555 25.5557 25.1719 25.8184 24.7083H35.9317C36.1945 25.1719 36.5781 25.5555 37.0417 25.8183V30.875H35.0684C34.7251 30.2962 34.2018 29.8457 33.5785 29.5921C32.9552 29.3385 32.266 29.2958 31.6161 29.4705C30.9663 29.6452 30.3914 30.0277 29.9793 30.5596C29.5671 31.0915 29.3403 31.7437 29.3334 32.4166ZM37.0417 33.9583V35.9316C36.5781 36.1944 36.1945 36.578 35.9317 37.0416H33.9584V35.0683C34.422 34.8055 34.8057 34.4219 35.0684 33.9583H37.0417ZM46.2917 45.1816C45.8281 45.4444 45.4445 45.828 45.1817 46.2916H35.0684C34.8057 45.828 34.422 45.4444 33.9584 45.1816V40.125H35.9317C36.1637 40.5419 36.4892 40.8993 36.8827 41.1691C37.2762 41.4389 37.7269 41.6138 38.1994 41.6798C38.6719 41.7459 39.1533 41.7014 39.6057 41.5498C40.0581 41.3983 40.4692 41.1438 40.8065 40.8064C41.1439 40.469 41.3984 40.058 41.5499 39.6056C41.7015 39.1532 41.746 38.6718 41.6799 38.1993C41.6139 37.7268 41.4391 37.276 41.1693 36.8825C40.8995 36.4891 40.542 36.1635 40.1251 35.9316V33.9583H45.1817C45.4445 34.4219 45.8281 34.8055 46.2917 35.0683V45.1816Z" fill="#5956E8"/>
</svg>
