<svg width="71" height="71" viewBox="0 0 71 71" fill="none" xmlns="http://www.w3.org/2000/svg">
<rect x="0.25" y="0.25" width="70.5" height="70.5" rx="9.75" stroke="#5956E8" stroke-width="0.5"/>
<path d="M47.8335 41.9442V29.0559C48.573 28.7982 49.2349 28.3571 49.7573 27.7737C50.2797 27.1903 50.6454 26.4839 50.8202 25.7206C50.995 24.9572 50.973 24.162 50.7565 23.4095C50.54 22.6569 50.1359 21.9717 49.5822 21.418C49.0285 20.8643 48.3433 20.4602 47.5907 20.2437C46.8382 20.0272 46.043 20.0052 45.2796 20.18C44.5163 20.3548 43.8099 20.7205 43.2265 21.2429C42.6431 21.7653 42.202 22.4272 41.9443 23.1667H29.056C28.7984 22.4272 28.3572 21.7653 27.7738 21.2429C27.1905 20.7205 26.484 20.3548 25.7207 20.18C24.9574 20.0052 24.1622 20.0272 23.4096 20.2437C22.6571 20.4602 21.9718 20.8643 21.4181 21.418C20.8644 21.9717 20.4603 22.6569 20.2438 23.4095C20.0273 24.162 20.0054 24.9572 20.1801 25.7206C20.3549 26.4839 20.7206 27.1903 21.243 27.7737C21.7654 28.3571 22.4273 28.7982 23.1668 29.0559V41.9442C22.4273 42.2018 21.7654 42.643 21.243 43.2264C20.7206 43.8097 20.3549 44.5162 20.1801 45.2795C20.0054 46.0428 20.0273 46.838 20.2438 47.5906C20.4603 48.3431 20.8644 49.0284 21.4181 49.5821C21.9718 50.1358 22.6571 50.5399 23.4096 50.7564C24.1622 50.9729 24.9574 50.9948 25.7207 50.8201C26.484 50.6453 27.1905 50.2796 27.7738 49.7572C28.3572 49.2348 28.7984 48.5728 29.056 47.8334H41.9443C42.202 48.5728 42.6431 49.2348 43.2265 49.7572C43.8099 50.2796 44.5163 50.6453 45.2796 50.8201C46.043 50.9948 46.8382 50.9729 47.5907 50.7564C48.3433 50.5399 49.0285 50.1358 49.5822 49.5821C50.1359 49.0284 50.54 48.3431 50.7565 47.5906C50.973 46.838 50.995 46.0428 50.8202 45.2795C50.6454 44.5162 50.2797 43.8097 49.7573 43.2264C49.2349 42.643 48.573 42.2018 47.8335 41.9442ZM46.2918 23.1667C46.5967 23.1667 46.8948 23.2571 47.1483 23.4265C47.4019 23.5959 47.5995 23.8367 47.7161 24.1184C47.8328 24.4001 47.8634 24.7101 47.8039 25.0091C47.7444 25.3082 47.5976 25.5829 47.3819 25.7985C47.1663 26.0141 46.8916 26.1609 46.5926 26.2204C46.2935 26.2799 45.9836 26.2494 45.7019 26.1327C45.4202 26.016 45.1794 25.8184 45.01 25.5649C44.8406 25.3113 44.7502 25.0133 44.7502 24.7084C44.7502 24.2995 44.9126 23.9074 45.2017 23.6182C45.4908 23.3291 45.8829 23.1667 46.2918 23.1667ZM24.7085 23.1667C25.0134 23.1667 25.3115 23.2571 25.565 23.4265C25.8185 23.5959 26.0161 23.8367 26.1328 24.1184C26.2495 24.4001 26.28 24.7101 26.2205 25.0091C26.1611 25.3082 26.0142 25.5829 25.7986 25.7985C25.583 26.0141 25.3083 26.1609 25.0093 26.2204C24.7102 26.2799 24.4002 26.2494 24.1185 26.1327C23.8368 26.016 23.596 25.8184 23.4266 25.5649C23.2572 25.3113 23.1668 25.0133 23.1668 24.7084C23.1668 24.2995 23.3293 23.9074 23.6184 23.6182C23.9075 23.3291 24.2996 23.1667 24.7085 23.1667ZM24.7085 47.8334C24.4036 47.8334 24.1055 47.743 23.852 47.5736C23.5985 47.4042 23.4009 47.1634 23.2842 46.8817C23.1675 46.6 23.137 46.29 23.1964 45.9909C23.2559 45.6919 23.4028 45.4172 23.6184 45.2016C23.834 44.986 24.1087 44.8391 24.4077 44.7797C24.7068 44.7202 25.0168 44.7507 25.2985 44.8674C25.5802 44.9841 25.8209 45.1817 25.9903 45.4352C26.1597 45.6887 26.2502 45.9868 26.2502 46.2917C26.2502 46.7006 26.0877 47.0927 25.7986 47.3818C25.5095 47.6709 25.1174 47.8334 24.7085 47.8334ZM41.9443 44.75H29.056C28.8258 44.1035 28.4546 43.5162 27.9693 43.0309C27.484 42.5456 26.8967 42.1744 26.2502 41.9442V29.0559C26.8967 28.8257 27.484 28.4545 27.9693 27.9692C28.4546 27.4838 28.8258 26.8966 29.056 26.25H41.9443C42.1745 26.8966 42.5457 27.4838 43.031 27.9692C43.5164 28.4545 44.1036 28.8257 44.7502 29.0559V41.9442C44.1036 42.1744 43.5164 42.5456 43.031 43.0309C42.5457 43.5162 42.1745 44.1035 41.9443 44.75ZM46.2918 47.8334C45.9869 47.8334 45.6888 47.743 45.4353 47.5736C45.1818 47.4042 44.9842 47.1634 44.8675 46.8817C44.7508 46.6 44.7203 46.29 44.7798 45.9909C44.8393 45.6919 44.9861 45.4172 45.2017 45.2016C45.4173 44.986 45.692 44.8391 45.9911 44.7797C46.2901 44.7202 46.6001 44.7507 46.8818 44.8674C47.1635 44.9841 47.4043 45.1817 47.5737 45.4352C47.7431 45.6887 47.8335 45.9868 47.8335 46.2917C47.8335 46.7006 47.6711 47.0927 47.3819 47.3818C47.0928 47.6709 46.7007 47.8334 46.2918 47.8334Z" fill="#5956E8"/>
</svg>
