<svg width="71" height="71" viewBox="0 0 71 71" fill="none" xmlns="http://www.w3.org/2000/svg">
<rect x="0.25" y="0.25" width="70.5" height="70.5" rx="9.75" stroke="#5956E8" stroke-width="0.5"/>
<path d="M26.6972 31.9696C26.8405 32.1141 27.011 32.2288 27.1989 32.307C27.3868 32.3853 27.5883 32.4256 27.7918 32.4256C27.9953 32.4256 28.1968 32.3853 28.3847 32.307C28.5725 32.2288 28.7431 32.1141 28.8864 31.9696C29.0309 31.8263 29.1456 31.6558 29.2238 31.4679C29.3021 31.28 29.3424 31.0785 29.3424 30.875C29.3424 30.6715 29.3021 30.47 29.2238 30.2821C29.1456 30.0942 29.0309 29.9237 28.8864 29.7804L25.803 26.6971C25.6564 26.5567 25.4835 26.4467 25.2943 26.3733C24.919 26.2191 24.498 26.2191 24.1226 26.3733C23.9334 26.4467 23.7605 26.5567 23.6139 26.6971L20.5305 29.7804C20.2402 30.0707 20.0771 30.4645 20.0771 30.875C20.0771 31.2855 20.2402 31.6793 20.5305 31.9696C20.8208 32.2599 21.2146 32.423 21.6251 32.423C22.0357 32.423 22.4294 32.2599 22.7197 31.9696L23.1668 31.5071V39.4929L22.7197 39.0304C22.4294 38.7401 22.0357 38.577 21.6251 38.577C21.2146 38.577 20.8208 38.7401 20.5305 39.0304C20.2402 39.3207 20.0771 39.7145 20.0771 40.125C20.0771 40.5355 20.2402 40.9293 20.5305 41.2196L23.6139 44.3029C23.7605 44.4433 23.9334 44.5533 24.1226 44.6267C24.3072 44.7082 24.5067 44.7504 24.7085 44.7504C24.9102 44.7504 25.1098 44.7082 25.2943 44.6267C25.4835 44.5533 25.6564 44.4433 25.803 44.3029L28.8864 41.2196C29.0301 41.0758 29.1441 40.9052 29.2219 40.7174C29.2997 40.5296 29.3398 40.3283 29.3398 40.125C29.3398 39.9217 29.2997 39.7204 29.2219 39.5326C29.1441 39.3448 29.0301 39.1742 28.8864 39.0304C28.7426 38.8867 28.572 38.7726 28.3842 38.6949C28.1964 38.6171 27.9951 38.577 27.7918 38.577C27.5885 38.577 27.3872 38.6171 27.1994 38.6949C27.0116 38.7726 26.8409 38.8867 26.6972 39.0304L26.2501 39.4929V31.5071L26.6972 31.9696ZM33.9585 29.3333H49.3751C49.784 29.3333 50.1761 29.1709 50.4652 28.8818C50.7544 28.5927 50.9168 28.2005 50.9168 27.7917C50.9168 27.3828 50.7544 26.9907 50.4652 26.7015C50.1761 26.4124 49.784 26.25 49.3751 26.25H33.9585C33.5496 26.25 33.1575 26.4124 32.8683 26.7015C32.5792 26.9907 32.4168 27.3828 32.4168 27.7917C32.4168 28.2005 32.5792 28.5927 32.8683 28.8818C33.1575 29.1709 33.5496 29.3333 33.9585 29.3333ZM49.3751 33.9583H33.9585C33.5496 33.9583 33.1575 34.1208 32.8683 34.4099C32.5792 34.699 32.4168 35.0911 32.4168 35.5C32.4168 35.9089 32.5792 36.301 32.8683 36.5901C33.1575 36.8792 33.5496 37.0417 33.9585 37.0417H49.3751C49.784 37.0417 50.1761 36.8792 50.4652 36.5901C50.7544 36.301 50.9168 35.9089 50.9168 35.5C50.9168 35.0911 50.7544 34.699 50.4652 34.4099C50.1761 34.1208 49.784 33.9583 49.3751 33.9583ZM49.3751 41.6667H33.9585C33.5496 41.6667 33.1575 41.8291 32.8683 42.1182C32.5792 42.4073 32.4168 42.7995 32.4168 43.2083C32.4168 43.6172 32.5792 44.0093 32.8683 44.2985C33.1575 44.5876 33.5496 44.75 33.9585 44.75H49.3751C49.784 44.75 50.1761 44.5876 50.4652 44.2985C50.7544 44.0093 50.9168 43.6172 50.9168 43.2083C50.9168 42.7995 50.7544 42.4073 50.4652 42.1182C50.1761 41.8291 49.784 41.6667 49.3751 41.6667Z" fill="#5956E8"/>
</svg>
