<svg width="71" height="71" viewBox="0 0 71 71" fill="none" xmlns="http://www.w3.org/2000/svg">
<rect width="71" height="71" rx="10" fill="#5956E8"/>
<path d="M46.2915 20.0833C45.8826 20.0833 45.4905 20.2457 45.2014 20.5349C44.9123 20.824 44.7498 21.2161 44.7498 21.625V23.1666H37.0415C36.6326 23.1666 36.2405 23.3291 35.9514 23.6182C35.6623 23.9073 35.4998 24.2994 35.4998 24.7083V46.2916C35.4998 46.7005 35.6623 47.0927 35.9514 47.3818C36.2405 47.6709 36.6326 47.8333 37.0415 47.8333H44.7498V49.375C44.7498 49.7839 44.9123 50.176 45.2014 50.4651C45.4905 50.7542 45.8826 50.9166 46.2915 50.9166C46.7004 50.9166 47.0925 50.7542 47.3816 50.4651C47.6707 50.176 47.8332 49.7839 47.8332 49.375V21.625C47.8332 21.2161 47.6707 20.824 47.3816 20.5349C47.0925 20.2457 46.7004 20.0833 46.2915 20.0833ZM44.7498 44.75H38.5832V26.25H44.7498V44.75ZM30.8748 20.0833C30.466 20.0833 30.0738 20.2457 29.7847 20.5349C29.4956 20.824 29.3332 21.2161 29.3332 21.625V24.7083H24.7082C24.2993 24.7083 23.9072 24.8707 23.618 25.1599C23.3289 25.449 23.1665 25.8411 23.1665 26.25V44.75C23.1665 45.1589 23.3289 45.551 23.618 45.8401C23.9072 46.1292 24.2993 46.2916 24.7082 46.2916H29.3332V49.375C29.3332 49.7839 29.4956 50.176 29.7847 50.4651C30.0738 50.7542 30.466 50.9166 30.8748 50.9166C31.2837 50.9166 31.6758 50.7542 31.965 50.4651C32.2541 50.176 32.4165 49.7839 32.4165 49.375V21.625C32.4165 21.2161 32.2541 20.824 31.965 20.5349C31.6758 20.2457 31.2837 20.0833 30.8748 20.0833ZM29.3332 43.2083H26.2498V27.7916H29.3332V43.2083Z" fill="white"/>
</svg>
