<svg width="64" height="46" viewBox="0 0 64 46" fill="none" xmlns="http://www.w3.org/2000/svg">
<path d="M5.1865 37.4325L2.875 37.8925V46H5.75C13.7511 46 19.8547 43.7834 23.8884 39.4105C29.3135 33.5225 28.7673 25.9613 28.75 25.875V2.875C28.75 2.1125 28.4471 1.38124 27.9079 0.842069C27.3688 0.302901 26.6375 0 25.875 0H5.75C2.57887 0 0 2.57887 0 5.75V25.875C0 26.6375 0.302901 27.3688 0.842069 27.9079C1.38124 28.4471 2.1125 28.75 2.875 28.75H14.5992C14.5385 30.1714 14.1138 31.5533 13.3659 32.7635C11.9083 35.0664 9.15687 36.6361 5.1865 37.4325Z" fill="#5956E8" fill-opacity="0.1"/>
<path d="M39.5014 37.4325L37.1899 37.8925V46H40.0649C48.0661 46 54.1697 43.7834 58.2033 39.4105C63.6284 33.5225 63.0822 25.9613 63.0649 25.875V2.875C63.0649 2.1125 62.762 1.38124 62.2229 0.842069C61.6837 0.302901 60.9524 0 60.1899 0H40.0649C36.8938 0 34.3149 2.57887 34.3149 5.75V25.875C34.3149 26.6375 34.6178 27.3688 35.157 27.9079C35.6962 28.4471 36.4274 28.75 37.1899 28.75H48.9142C48.8535 30.1714 48.4288 31.5533 47.6808 32.7635C46.2232 35.0664 43.4718 36.6361 39.5014 37.4325Z" fill="#5956E8" fill-opacity="0.1"/>
</svg>
