<svg width="71" height="71" viewBox="0 0 71 71" fill="none" xmlns="http://www.w3.org/2000/svg">
<rect x="0.25" y="0.25" width="70.5" height="70.5" rx="9.75" stroke="#5956E8" stroke-width="0.5"/>
<path d="M41.3333 32.4166H38.1666V29.3333C38.1666 28.9244 37.9998 28.5323 37.7029 28.2432C37.4059 27.954 37.0032 27.7916 36.5833 27.7916H28.6666C28.2467 27.7916 27.8439 27.954 27.547 28.2432C27.2501 28.5323 27.0833 28.9244 27.0833 29.3333V37.0416C27.0833 37.4505 27.2501 37.8426 27.547 38.1317C27.8439 38.4209 28.2467 38.5833 28.6666 38.5833H31.8333V41.6666C31.8333 42.0755 32.0001 42.4676 32.297 42.7567C32.5939 43.0459 32.9967 43.2083 33.4166 43.2083H41.3333C41.7532 43.2083 42.1559 43.0459 42.4529 42.7567C42.7498 42.4676 42.9166 42.0755 42.9166 41.6666V33.9583C42.9166 33.5494 42.7498 33.1573 42.4529 32.8682C42.1559 32.579 41.7532 32.4166 41.3333 32.4166ZM31.8333 33.9583V35.5H30.2499V30.875H34.9999V32.4166H33.4166C32.9967 32.4166 32.5939 32.579 32.297 32.8682C32.0001 33.1573 31.8333 33.5494 31.8333 33.9583ZM39.7499 40.125H34.9999V35.5H39.7499V40.125ZM49.2499 45.1816V25.8183C49.6781 25.5864 50.0452 25.2609 50.3223 24.8674C50.5994 24.4739 50.779 24.0231 50.8468 23.5506C50.9146 23.0781 50.8689 22.5967 50.7133 22.1443C50.5576 21.6919 50.2963 21.2809 49.9498 20.9435C49.6033 20.6061 49.1812 20.3517 48.7165 20.2001C48.2519 20.0485 47.7575 20.004 47.2722 20.0701C46.7869 20.1362 46.324 20.311 45.9199 20.5808C45.5158 20.8506 45.1815 21.208 44.9433 21.625H25.0566C24.8184 21.208 24.4841 20.8506 24.08 20.5808C23.6758 20.311 23.2129 20.1362 22.7276 20.0701C22.2424 20.004 21.7479 20.0485 21.2833 20.2001C20.8187 20.3517 20.3965 20.6061 20.0501 20.9435C19.7036 21.2809 19.4422 21.6919 19.2866 22.1443C19.1309 22.5967 19.0852 23.0781 19.1531 23.5506C19.2209 24.0231 19.4004 24.4739 19.6775 24.8674C19.9546 25.2609 20.3217 25.5864 20.7499 25.8183V45.1816C20.3217 45.4135 19.9546 45.7391 19.6775 46.1325C19.4004 46.526 19.2209 46.9768 19.1531 47.4493C19.0852 47.9218 19.1309 48.4032 19.2866 48.8556C19.4422 49.308 19.7036 49.719 20.0501 50.0564C20.3965 50.3938 20.8187 50.6483 21.2833 50.7998C21.7479 50.9514 22.2424 50.9959 22.7276 50.9298C23.2129 50.8638 23.6758 50.6889 24.08 50.4191C24.4841 50.1493 24.8184 49.7919 25.0566 49.375H44.9433C45.1815 49.7919 45.5158 50.1493 45.9199 50.4191C46.324 50.6889 46.7869 50.8638 47.2722 50.9298C47.7575 50.9959 48.2519 50.9514 48.7165 50.7998C49.1812 50.6483 49.6033 50.3938 49.9498 50.0564C50.2963 49.719 50.5576 49.308 50.7133 48.8556C50.8689 48.4032 50.9146 47.9218 50.8468 47.4493C50.779 46.9768 50.5994 46.526 50.3223 46.1325C50.0452 45.7391 49.6781 45.4135 49.2499 45.1816ZM46.0833 45.1816C45.6071 45.4444 45.2131 45.828 44.9433 46.2916H25.0566C24.7868 45.828 24.3928 45.4444 23.9166 45.1816V25.8183C24.3928 25.5555 24.7868 25.1719 25.0566 24.7083H44.9433C45.2131 25.1719 45.6071 25.5555 46.0833 25.8183V45.1816Z" fill="#5956E8"/>
</svg>
