<svg width="71" height="71" viewBox="0 0 71 71" fill="none" xmlns="http://www.w3.org/2000/svg">
<rect x="0.25" y="0.25" width="70.5" height="70.5" rx="9.75" stroke="#5956E8" stroke-width="0.5"/>
<path d="M29.6105 23.1666H32.848C33.2569 23.1666 33.649 23.0042 33.9381 22.7151C34.2272 22.426 34.3897 22.0339 34.3897 21.625C34.3897 21.2161 34.2272 20.824 33.9381 20.5349C33.649 20.2457 33.2569 20.0833 32.848 20.0833H29.6105C29.2016 20.0833 28.8095 20.2457 28.5204 20.5349C28.2313 20.824 28.0688 21.2161 28.0688 21.625C28.0688 22.0339 28.2313 22.426 28.5204 22.7151C28.8095 23.0042 29.2016 23.1666 29.6105 23.1666ZM21.6247 34.39C22.0336 34.39 22.4257 34.2276 22.7148 33.9384C23.0039 33.6493 23.1663 33.2572 23.1663 32.8483V29.6108C23.1663 29.2019 23.0039 28.8098 22.7148 28.5207C22.4257 28.2316 22.0336 28.0691 21.6247 28.0691C21.2158 28.0691 20.8237 28.2316 20.5346 28.5207C20.2454 28.8098 20.083 29.2019 20.083 29.6108V32.8483C20.083 33.2572 20.2454 33.6493 20.5346 33.9384C20.8237 34.2276 21.2158 34.39 21.6247 34.39ZM39.2922 23.1666C39.2922 23.5755 39.4546 23.9677 39.7437 24.2568C40.0328 24.5459 40.425 24.7083 40.8338 24.7083C41.2427 24.7083 41.6348 24.5459 41.924 24.2568C42.2131 23.9677 42.3755 23.5755 42.3755 23.1666V21.625C42.3755 21.2161 42.2131 20.824 41.924 20.5349C41.6348 20.2457 41.2427 20.0833 40.8338 20.0833H39.2922C38.8833 20.0833 38.4912 20.2457 38.2021 20.5349C37.9129 20.824 37.7505 21.2161 37.7505 21.625C37.7505 22.0339 37.9129 22.426 38.2021 22.7151C38.4912 23.0042 38.8833 23.1666 39.2922 23.1666ZM49.3747 28.6241H42.3755C42.3755 28.2153 42.2131 27.8231 41.924 27.534C41.6348 27.2449 41.2427 27.0825 40.8338 27.0825C40.425 27.0825 40.0328 27.2449 39.7437 27.534C39.4546 27.8231 39.2922 28.2153 39.2922 28.6241H30.1655C29.7566 28.6241 29.3645 28.7866 29.0754 29.0757C28.7863 29.3648 28.6238 29.7569 28.6238 30.1658V39.2925C28.215 39.2925 27.8228 39.4549 27.5337 39.744C27.2446 40.0331 27.0822 40.4253 27.0822 40.8341C27.0822 41.243 27.2446 41.6352 27.5337 41.9243C27.8228 42.2134 28.215 42.3758 28.6238 42.3758V49.375C28.6238 49.7839 28.7863 50.176 29.0754 50.4651C29.3645 50.7542 29.7566 50.9166 30.1655 50.9166H49.3747C49.7836 50.9166 50.1757 50.7542 50.4648 50.4651C50.7539 50.176 50.9163 49.7839 50.9163 49.375V30.1658C50.9163 29.7569 50.7539 29.3648 50.4648 29.0757C50.1757 28.7866 49.7836 28.6241 49.3747 28.6241ZM47.833 47.8333H31.7072V40.8496V31.7075H47.833V47.8333ZM23.1663 20.0833H21.6247C21.2158 20.0833 20.8237 20.2457 20.5346 20.5349C20.2454 20.824 20.083 21.2161 20.083 21.625V23.1666C20.083 23.5755 20.2454 23.9677 20.5346 24.2568C20.8237 24.5459 21.2158 24.7083 21.6247 24.7083C22.0336 24.7083 22.4257 24.5459 22.7148 24.2568C23.0039 23.9677 23.1663 23.5755 23.1663 23.1666C23.5752 23.1666 23.9673 23.0042 24.2565 22.7151C24.5456 22.426 24.708 22.0339 24.708 21.625C24.708 21.2161 24.5456 20.824 24.2565 20.5349C23.9673 20.2457 23.5752 20.0833 23.1663 20.0833ZM23.1663 39.2925C23.1663 38.8836 23.0039 38.4915 22.7148 38.2024C22.4257 37.9132 22.0336 37.7508 21.6247 37.7508C21.2158 37.7508 20.8237 37.9132 20.5346 38.2024C20.2454 38.4915 20.083 38.8836 20.083 39.2925V40.8341C20.083 41.243 20.2454 41.6352 20.5346 41.9243C20.8237 42.2134 21.2158 42.3758 21.6247 42.3758H23.1663C23.5752 42.3758 23.9673 42.2134 24.2565 41.9243C24.5456 41.6352 24.708 41.243 24.708 40.8341C24.708 40.4253 24.5456 40.0331 24.2565 39.744C23.9673 39.4549 23.5752 39.2925 23.1663 39.2925Z" fill="#5956E8"/>
</svg>
